<svg height="512pt" viewBox="-5 0 512 512" width="512pt" xmlns="http://www.w3.org/2000/svg"><path d="m393.933594 30.734375c0-2.890625 1.089844-5.527344 2.871094-7.554687h-200.566407v93.957031h197.695313zm0 0" fill="#b2762f"/><path d="m23.761719 105.085938v212.488281h94.191406v-208.851563h-85.820313c-3.292968 0-6.269531-1.40625-8.371093-3.636718zm0 0" fill="#ffd5b3"/><path d="m479.042969 406.914062v-212.488281h-94.191407v208.851563h85.820313c3.289063 0 6.265625 1.40625 8.371094 3.636718zm0 0" fill="#f7c39f"/><path d="m497.652344 155.503906c.3125 0 .613281.039063.90625.105469v-124.875c0-6.320313-5.1875-11.492187-11.523438-11.492187h-3.457031c-6.335937 0-11.519531 5.171874-11.519531 11.492187 0-6.320313-5.183594-11.492187-11.519532-11.492187h-3.457031c-6.335937 0-11.519531 5.171874-11.519531 11.492187 0-6.320313-5.1875-11.492187-11.523438-11.492187h-3.453124c-6.339844 0-11.519532 5.171874-11.519532 11.492187 0-6.320313-5.1875-11.492187-11.523437-11.492187h-3.457031c-6.335938 0-11.519532 5.171874-11.519532 11.492187v86.402344h-30.535156l11.238281 38.363281h124.382813zm0 0" fill="#f7c39f"/><path d="m368.171875 154.503906c-2.832031 0-5.148437 2.316406-5.148437 5.148438v30.621094c0 2.832031 2.316406 5.152343 5.148437 5.152343h129.480469c2.832031 0 5.148437-2.320312 5.148437-5.152343v-30.621094c0-2.832032-2.316406-5.148438-5.148437-5.148438zm0 0" fill="#5dc647"/><path d="m32.132812 109.957031h85.820313v30.457031l39.257813-11.214843v-124.050781c0-.3125.042968-.617188.109374-.914063h-125.1875c-6.335937 0-11.519531 5.171875-11.519531 11.492187v3.445313c0 6.320313 5.183594 11.492187 11.519531 11.492187-6.335937 0-11.519531 5.171876-11.519531 11.492188v3.445312c0 6.324219 5.183594 11.492188 11.519531 11.492188-6.335937 0-11.519531 5.171875-11.519531 11.492188v3.445312c0 6.324219 5.183594 11.492188 11.519531 11.492188-6.335937 0-11.519531 5.171874-11.519531 11.492187v3.449219c0 6.320312 5.183594 11.492187 11.519531 11.492187zm0 0" fill="#b2762f"/><path d="m156.210938 134.277344c0 2.832031 2.320312 5.152344 5.152343 5.152344h30.726563c2.832031 0 5.148437-2.320313 5.148437-5.152344v-129.128906c0-2.832032-2.316406-5.148438-5.148437-5.148438h-30.726563c-2.832031 0-5.152343 2.316406-5.152343 5.148438zm0 0" fill="#5dc647"/><path d="m108.390625 394.863281v86.402344c0 2.886719-1.089844 5.527344-2.871094 7.550781h201.042969v-93.953125zm0 0" fill="#c6a07d"/><path d="m470.671875 402.042969h-85.820313v-30.457031l-39.261718 11.214843v124.050781c0 .3125-.042969.617188-.109375.914063h125.191406c6.332031 0 11.519531-5.171875 11.519531-11.492187v-3.445313c0-6.320313-5.1875-11.492187-11.519531-11.492187 6.332031 0 11.519531-5.171876 11.519531-11.492188v-3.445312c0-6.324219-5.1875-11.492188-11.519531-11.492188 6.332031 0 11.519531-5.171875 11.519531-11.492188v-3.445312c0-6.324219-5.1875-11.492188-11.519531-11.492188 6.332031 0 11.519531-5.171874 11.519531-11.492187v-3.449219c-.003906-6.320312-5.1875-11.492187-11.519531-11.492187zm0 0" fill="#c6a07d"/><path d="m346.589844 377.722656c0-2.832031-2.316406-5.152344-5.152344-5.152344h-30.722656c-2.835938 0-5.152344 2.320313-5.152344 5.152344v129.128906c0 2.832032 2.316406 5.148438 5.152344 5.148438h30.722656c2.835938 0 5.152344-2.316406 5.152344-5.148438zm0 0" fill="#5dc647"/><path d="m5.152344 356.496094c-.3125 0-.613282-.039063-.90625-.105469v124.875c0 6.320313 5.183594 11.492187 11.519531 11.492187h3.457031c6.335938 0 11.519532-5.171874 11.519532-11.492187 0 6.320313 5.183593 11.492187 11.519531 11.492187h3.457031c6.335938 0 11.519531-5.171874 11.519531-11.492187 0 6.320313 5.1875 11.492187 11.519531 11.492187h3.457032c6.339844 0 11.519531-5.171874 11.519531-11.492187 0 6.320313 5.1875 11.492187 11.523437 11.492187h3.457032c6.335937 0 11.519531-5.171874 11.519531-11.492187v-86.402344h30.53125l-11.234375-38.367187zm0 0" fill="#ffd5b3"/><path d="m134.628906 357.496094c2.835938 0 5.152344-2.316406 5.152344-5.148438v-30.621094c0-2.832031-2.316406-5.152343-5.152344-5.152343h-129.476562c-2.835938 0-5.152344 2.320312-5.152344 5.152343v30.621094c0 2.832032 2.316406 5.148438 5.152344 5.148438zm0 0" fill="#5dc647"/><path d="m251.402344 330.527344c-2.230469 0-4.46875-.851563-6.171875-2.550782l-73.128907-72.941406c-16.84375-16.800781-16.84375-44.136718 0-60.941406 8.160157-8.136719 19.007813-12.621094 30.546876-12.621094 11.539062 0 22.386718 4.484375 30.546874 12.621094l18.207032 18.160156 18.207031-18.160156c8.15625-8.136719 19-12.621094 30.539063-12.621094 11.542968 0 22.390624 4.484375 30.550781 12.621094 16.84375 16.804688 16.84375 44.140625 0 60.941406l-73.128907 72.941406c-1.703124 1.699219-3.9375 2.550782-6.167968 2.550782zm0 0" fill="#ef5050"/><g fill="#960b15"><path d="m219.796875 247.644531c-4.144531 0-7.5-3.355469-7.5-7.5v-7.417969c0-4.140624 3.355469-7.5 7.5-7.5 4.140625 0 7.5 3.359376 7.5 7.5v7.417969c0 4.144531-3.359375 7.5-7.5 7.5zm0 0"/><path d="m283.007812 247.644531c-4.144531 0-7.5-3.355469-7.5-7.5v-7.417969c0-4.140624 3.355469-7.5 7.5-7.5 4.140626 0 7.5 3.359376 7.5 7.5v7.417969c0 4.144531-3.359374 7.5-7.5 7.5zm0 0"/><path d="m251.402344 289.066406c-12.339844 0-22.375-10.023437-22.375-22.339844 0-4.140624 3.355468-7.5 7.5-7.5 4.140625 0 7.5 3.359376 7.5 7.5 0 4.046876 3.308594 7.339844 7.375 7.339844s7.371094-3.292968 7.371094-7.339844c0-4.140624 3.359374-7.5 7.5-7.5 4.144531 0 7.5 3.359376 7.5 7.5 0 12.320313-10.035157 22.339844-22.371094 22.339844zm0 0"/></g></svg>