<svg height="512pt" viewBox="0 -22 512.00083 512" width="512pt" xmlns="http://www.w3.org/2000/svg"><path d="m509.945312 159.292969c-5.53125-12.066407-11.644531-34.109375-11.644531-72.597657 0-70.257812-45.277343-88.203124-104.769531-53.53125l40.214844 156.316407c31.253906 12.144531 53.367187 6.421875 67.175781-1.53125 9.984375-5.75 13.820313-18.183594 9.023437-28.65625zm0 0" fill="#ad4f3d"/><path d="m103.835938 159.292969c5.527343-12.066407 11.644531-34.109375 11.644531-72.597657 0-70.257812 45.273437-88.203124 104.769531-53.53125l-40.21875 156.316407c-31.25 12.144531-53.363281 6.421875-67.175781-1.53125-9.984375-5.75-13.820313-18.183594-9.019531-28.65625zm0 0" fill="#ad4f3d"/><path d="m427.578125 209.824219c-6.59375 16.601562-16.492187 31.511719-28.914063 43.933593-23.484374 23.480469-55.929687 38.015626-91.773437 38.015626-54.800781 0-101.644531-33.941407-120.691406-81.949219l64.851562-197.222657c16.917969-8.089843 35.84375-12.601562 55.839844-12.601562s38.921875 4.511719 55.839844 12.601562zm0 0" fill="#efedee"/><path d="m436.679688 129.789062v32.191407c0 16.890625-3.230469 33.039062-9.101563 47.84375-27.300781-2.6875-56.09375-13.28125-73.390625-35.527344-28.449219-36.582031-19.4375-96.695313-4.710938-136.988281 3.109376-8.5 7.066407-17.765625 13.25-24.707032 43.726563 20.855469 73.953126 65.5 73.953126 117.1875zm0 0" fill="#c86d5c"/><path d="m177.097656 129.789062v32.191407c0 16.890625 3.230469 33.039062 9.101563 47.84375 27.300781-2.6875 56.097656-13.28125 73.394531-35.527344 28.445312-36.582031 19.4375-96.695313 4.707031-136.988281-3.109375-8.5-7.0625-17.765625-13.25-24.707032-43.722656 20.855469-73.953125 65.5-73.953125 117.1875zm0 0" fill="#c86d5c"/><path d="m321.425781 170.75h-29.070312c-5.777344 0-7.394531 7.910156-2.089844 10.195312 5.054687 2.179688 10.683594 3.394532 16.621094 3.394532 5.941406 0 11.570312-1.214844 16.625-3.394532 5.304687-2.285156 3.6875-10.195312-2.085938-10.195312zm0 0" fill="#3a484a"/><path d="m223.03125 167.441406c-4.265625 0-7.726562-3.457031-7.726562-7.726562v-14.902344c0-4.265625 3.460937-7.726562 7.726562-7.726562 4.269531 0 7.726562 3.460937 7.726562 7.726562v14.902344c0 4.269531-3.457031 7.726562-7.726562 7.726562zm0 0" fill="#3a484a"/><path d="m390.746094 167.441406c-4.265625 0-7.726563-3.457031-7.726563-7.726562v-14.902344c0-4.265625 3.460938-7.726562 7.726563-7.726562s7.726562 3.460937 7.726562 7.726562v14.902344c0 4.269531-3.460937 7.726562-7.726562 7.726562zm0 0" fill="#3a484a"/><path d="m16.988281 231.71875c-5.898437-.503906-11.296875 3.289062-12.921875 8.984375-4.332031 15.179687-9.5625 46.589844 9.839844 73.898437l51.109375-60.6875s-18.519531-19.667968-48.027344-22.195312zm0 0" fill="#b8b8b8"/><path d="m225.628906 231.71875c5.898438-.503906 11.296875 3.289062 12.921875 8.984375 4.332031 15.179687 9.5625 46.589844-9.839843 73.898437l-51.109376-60.6875s18.519532-19.667968 48.027344-22.195312zm0 0" fill="#b8b8b8"/><path d="m235.402344 353.171875c0 63.011719-51.082032 114.09375-114.09375 114.09375-63.011719 0-114.09375-51.082031-114.09375-114.09375s51.082031-114.089844 114.09375-114.089844c63.011718 0 114.09375 51.078125 114.09375 114.089844zm0 0" fill="#d2d2d2"/><path d="m141.914062 456.964844c-63.015624 0-114.09375-51.082032-114.09375-114.09375 0-40.570313 21.179688-76.1875 53.078126-96.417969-43.0625 16.316406-73.683594 57.9375-73.683594 106.71875 0 63.011719 51.082031 114.09375 114.09375 114.09375 22.441406 0 43.367187-6.484375 61.011718-17.671875-12.558593 4.757812-26.179687 7.371094-40.40625 7.371094zm0 0" fill="#b8b8b8"/><g fill="#3a484a"><path d="m61.050781 351.890625c-4.265625 0-7.726562-3.460937-7.726562-7.726563v-10.988281c0-4.269531 3.460937-7.726562 7.726562-7.726562s7.726563 3.457031 7.726563 7.726562v10.988281c0 4.265626-3.460938 7.726563-7.726563 7.726563zm0 0"/><path d="m182.488281 351.890625c-4.265625 0-7.726562-3.460937-7.726562-7.726563v-10.988281c0-4.269531 3.460937-7.726562 7.726562-7.726562 4.269531 0 7.726563 3.457031 7.726563 7.726562v10.988281c0 4.265626-3.457032 7.726563-7.726563 7.726563zm0 0"/><path d="m344.175781 198.378906c-3.214843-2.808594-8.09375-2.480468-10.902343.730469-2.492188 2.847656-6.238282 4.484375-10.285157 4.484375-4.042969 0-7.792969-1.636719-10.28125-4.484375-1.445312-1.65625-3.621093-2.632813-5.816406-2.632813-2.210937 0-4.363281.96875-5.820313 2.632813-2.488281 2.847656-6.234374 4.484375-10.28125 4.484375-4.046874 0-7.792968-1.636719-10.28125-4.484375-2.808593-3.210937-7.691406-3.539063-10.902343-.730469-3.214844 2.804688-3.542969 7.6875-.734375 10.902344 5.425781 6.203125 13.414062 9.761719 21.917968 9.761719 5.828126 0 11.414063-1.671875 16.101563-4.722657 4.683594 3.050782 10.269531 4.722657 16.097656 4.722657 8.503907 0 16.492188-3.558594 21.917969-9.761719 2.808594-3.214844 2.480469-8.097656-.730469-10.902344zm0 0"/><path d="m147.035156 345.054688c-3.210937-2.808594-8.09375-2.480469-10.902344.730468-1.011718 1.160156-2.570312 1.824219-4.273437 1.824219s-3.261719-.664063-4.273437-1.824219c-1.445313-1.652344-3.621094-2.632812-5.816407-2.632812-2.183593 0-4.378906.988281-5.816406 2.632812-1.011719 1.160156-2.570313 1.824219-4.273437 1.824219-1.703126 0-3.261719-.664063-4.273438-1.824219-2.808594-3.214844-7.691406-3.539062-10.902344-.730468-3.214844 2.808593-3.542968 7.6875-.734375 10.902343 3.949219 4.515625 9.746094 7.105469 15.910157 7.105469 3.585937 0 7.042968-.882812 10.089843-2.507812 3.046875 1.625 6.507813 2.507812 10.089844 2.507812 6.164063 0 11.960937-2.589844 15.910156-7.105469 2.808594-3.214843 2.480469-8.09375-.734375-10.902343zm0 0"/></g></svg>