<?xml version="1.0" encoding="iso-8859-1"?>
<!-- Generator: Adobe Illustrator 19.0.0, SVG Export Plug-In . SVG Version: 6.00 Build 0)  -->
<svg version="1.1" id="Capa_1" xmlns="http://www.w3.org/2000/svg" xmlns:xlink="http://www.w3.org/1999/xlink" x="0px" y="0px"
	 viewBox="0 0 512 512" style="enable-background:new 0 0 512 512;" xml:space="preserve">
<path style="fill:#C8C8C8;" d="M512,67.549v376.902c0,3.414-2.767,6.181-6.181,6.181H6.181c-3.414,0-6.181-2.767-6.181-6.181V67.549
	c0-3.414,2.767-6.181,6.181-6.181h499.638C509.233,61.368,512,64.135,512,67.549z"/>
<path style="fill:#AAAAAA;" d="M512,394.044v50.407c0,3.414-2.767,6.181-6.181,6.181H6.181c-3.414,0-6.181-2.767-6.181-6.181
	v-50.407H512z"/>
<path style="fill:#E3E3E3;" d="M505.819,450.631H6.181c-3.414,0-6.181-2.767-6.181-6.181v-38.041h512v38.041
	C512,447.863,509.233,450.631,505.819,450.631z"/>
<path style="fill:#AAAAAA;" d="M512,67.549v80.282H0V67.549c0-3.414,2.767-6.181,6.181-6.181h499.638
	C509.233,61.368,512,64.135,512,67.549z"/>
<path style="fill:#159BFF;" d="M512,67.549v67.92H0v-67.92c0-3.41,2.771-6.181,6.181-6.181h499.638
	C509.229,61.368,512,64.139,512,67.549z"/>
<path style="fill:#FFDA2C;" d="M512,67.549v22.139l-45.792,45.781h-94.581l74.121-74.101h60.07
	C509.233,61.368,512,64.135,512,67.549z"/>
<polygon style="fill:#89BF4A;" points="496.279,61.368 422.158,135.469 327.577,135.469 401.698,61.368 "/>
<polygon style="fill:#FC4747;" points="450.066,61.368 375.934,135.469 281.363,135.469 355.485,61.368 "/>
<polygon style="fill:#006DF0;" points="307.54,61.368 233.418,135.469 211.568,135.469 285.68,61.368 "/>
<path style="fill:#FC4747;" d="M45.205,106.143h-0.11c-4.267,0-7.726-3.459-7.726-7.726s3.459-7.726,7.726-7.726h0.11
	c4.267,0,7.726,3.459,7.726,7.726C52.932,102.684,49.472,106.143,45.205,106.143z"/>
<path style="fill:#FFDA2C;" d="M73.867,106.143h-0.11c-4.267,0-7.726-3.459-7.726-7.726s3.459-7.726,7.726-7.726h0.11
	c4.267,0,7.726,3.459,7.726,7.726C81.594,102.684,78.134,106.143,73.867,106.143z"/>
<path style="fill:#00D8E0;" d="M102.53,106.143h-0.11c-4.267,0-7.726-3.459-7.726-7.726s3.459-7.726,7.726-7.726h0.11
	c4.267,0,7.726,3.459,7.726,7.726S106.797,106.143,102.53,106.143z"/>
<path style="fill:#E3E3E3;" d="M429.871,284.492h-338.5c-3.414,0-6.181-2.767-6.181-6.181v-65.774c0-3.414,2.767-6.181,6.181-6.181
	h338.5c3.414,0,6.181,2.767,6.181,6.181v65.774C436.052,281.724,433.284,284.492,429.871,284.492z"/>
<g>
	<path style="fill:#159BFF;" d="M213.091,266.386c-2.529,0-4.938-1.244-6.393-3.389l-3.963-5.843l-3.964,5.843
		c-1.736,2.559-4.835,3.835-7.869,3.247c-3.037-0.591-5.428-2.935-6.078-5.959l-5.577-25.923c-0.898-4.172,1.757-8.281,5.928-9.179
		c4.174-0.9,8.281,1.756,9.179,5.928l1.776,8.254l0.212-0.312c1.438-2.119,3.832-3.389,6.394-3.389l0,0
		c2.561,0,4.956,1.27,6.394,3.389l0.211,0.312l1.776-8.254c0.898-4.172,5.01-6.828,9.179-5.928c4.172,0.897,6.826,5.007,5.928,9.179
		l-5.577,25.923c-0.65,3.024-3.042,5.369-6.078,5.959C214.074,266.34,213.58,266.386,213.091,266.386z"/>
	<path style="fill:#159BFF;" d="M266.356,266.386c-2.529,0-4.938-1.244-6.393-3.389L256,257.154l-3.964,5.843
		c-1.737,2.559-4.835,3.835-7.869,3.247c-3.037-0.591-5.428-2.935-6.078-5.959l-5.577-25.923c-0.898-4.172,1.757-8.281,5.928-9.179
		c4.173-0.9,8.281,1.756,9.179,5.928l1.776,8.254l0.212-0.312c1.438-2.119,3.832-3.389,6.394-3.389l0,0
		c2.561,0,4.957,1.27,6.394,3.389l0.211,0.312l1.776-8.254c0.898-4.172,5.017-6.826,9.178-5.928
		c4.172,0.897,6.826,5.007,5.929,9.179l-5.577,25.923c-0.651,3.024-3.042,5.369-6.078,5.959
		C267.34,266.34,266.845,266.386,266.356,266.386z"/>
	<path style="fill:#159BFF;" d="M319.622,266.386c-2.529,0-4.938-1.244-6.393-3.389l-3.963-5.843l-3.964,5.843
		c-1.737,2.56-4.838,3.841-7.869,3.246c-3.036-0.591-5.429-2.935-6.078-5.959l-5.576-25.923c-0.897-4.172,1.757-8.281,5.929-9.178
		c4.17-0.899,8.281,1.757,9.178,5.929l1.776,8.253l0.211-0.312c1.439-2.12,3.833-3.389,6.394-3.389l0,0
		c2.561,0,4.957,1.27,6.394,3.389l0.211,0.312l1.776-8.254c0.897-4.172,5.017-6.826,9.178-5.928
		c4.172,0.897,6.826,5.007,5.929,9.179l-5.577,25.923c-0.651,3.024-3.042,5.369-6.078,5.959
		C320.606,266.34,320.111,266.386,319.622,266.386z"/>
	<path style="fill:#159BFF;" d="M304.934,349.746h-97.867c-3.414,0-6.181-2.767-6.181-6.181v-18.543
		c0-3.414,2.767-6.181,6.181-6.181h97.867c3.414,0,6.181,2.767,6.181,6.181v18.543C311.115,346.979,308.347,349.746,304.934,349.746
		z"/>
</g>
<g>
</g>
<g>
</g>
<g>
</g>
<g>
</g>
<g>
</g>
<g>
</g>
<g>
</g>
<g>
</g>
<g>
</g>
<g>
</g>
<g>
</g>
<g>
</g>
<g>
</g>
<g>
</g>
<g>
</g>
</svg>
