<svg height="464pt" viewBox="0 0 464 464" width="464pt" xmlns="http://www.w3.org/2000/svg"><path d="m464 64v368c0 17.671875-14.328125 32-32 32h-400c-17.671875 0-32-14.328125-32-32v-368zm0 0" fill="#78b9eb"/><path d="m464 64v368c0 17.671875-14.328125 32-32 32h-400c-17.671875 0-32-14.328125-32-32v-7.921875c82.960938-23.679687 306.640625-108.878906 427.921875-360.078125zm0 0" fill="#5aaae7"/><path d="m96 176-8 8h-8v24c0 17.671875 14.328125 32 32 32s32-14.328125 32-32v-24h-32zm0 0" fill="#ffdaaa"/><path d="m464 32c0-17.671875-14.328125-32-32-32h-400c-17.671875 0-32 14.328125-32 32v32h464zm0 0" fill="#ff7956"/><path d="m135.679688 256.640625-23.679688 55.359375v56h56c4.417969 0 8-3.582031 8-8v-56c-.011719-23.535156-17.085938-43.59375-40.320312-47.359375zm0 0" fill="#5aaae7"/><path d="m56 368h56v-56l-23.679688-55.359375c-23.234374 3.765625-40.308593 23.824219-40.320312 47.359375v56c0 4.417969 3.582031 8 8 8zm0 0" fill="#3d9ae2"/><path d="m135.679688 256.640625c-2.539063-.417969-5.105469-.632813-7.679688-.640625h-32c-2.574219.007812-5.140625.222656-7.679688.640625l23.679688 55.359375zm0 0" fill="#ffdaaa"/><path d="m88 184 8-8 16 8h40v-8c0-17.671875-14.328125-32-32-32h-16c-17.671875 0-32 14.328125-32 32v8zm0 0" fill="#787680"/><path d="m384 240h-144c-17.671875 0-32 14.328125-32 32s14.328125 32 32 32h144c17.671875 0 32-14.328125 32-32s-14.328125-32-32-32zm0 0" fill="#ffb655"/><path d="m48 40c-2.128906.019531-4.175781-.816406-5.679688-2.320312-.703124-.777344-1.273437-1.671876-1.679687-2.640626-.855469-1.9375-.855469-4.140624 0-6.078124.386719-.980469.957031-1.875 1.679687-2.640626 1.914063-1.886718 4.644532-2.699218 7.28125-2.160156.5.089844.984376.25 1.4375.480469.511719.175781.996094.417969 1.441407.71875.417969.296875.816406.617187 1.199219.960937.722656.765626 1.292968 1.660157 1.679687 2.640626.851563 1.9375.851563 4.140624 0 6.078124-.40625.96875-.976563 1.863282-1.679687 2.640626-1.507813 1.503906-3.550782 2.339843-5.679688 2.320312zm0 0" fill="#ffd422"/><path d="m80 40c-1.046875-.011719-2.078125-.230469-3.039062-.640625-.96875-.40625-1.863282-.972656-2.640626-1.679687-.703124-.796876-1.296874-1.6875-1.769531-2.640626-.378906-.96875-.566406-2-.550781-3.039062-.027344-1.050781.191406-2.089844.640625-3.039062.386719-.980469.957031-1.875 1.679687-2.640626 3.207032-2.960937 8.152344-2.960937 11.359376 0 .722656.765626 1.292968 1.660157 1.679687 2.640626.851563 1.9375.851563 4.140624 0 6.078124-.40625.96875-.976563 1.863282-1.679687 2.640626-1.507813 1.503906-3.550782 2.339843-5.679688 2.320312zm0 0" fill="#00ccb3"/><path d="m112 40c-2.128906.019531-4.175781-.816406-5.679688-2.320312-.703124-.777344-1.273437-1.671876-1.679687-2.640626-.851563-1.9375-.851563-4.140624 0-6.078124.386719-.980469.957031-1.875 1.679687-2.640626 3.207032-2.960937 8.152344-2.960937 11.359376 0 .722656.765626 1.292968 1.660157 1.679687 2.640626.851563 1.9375.851563 4.140624 0 6.078124-.40625.96875-.976563 1.863282-1.679687 2.640626-.777344.703124-1.671876 1.273437-2.640626 1.679687-.960937.410156-1.992187.628906-3.039062.640625zm0 0" fill="#ff6243"/><path d="m136 296h16v16h-16zm0 0" fill="#1e81ce"/><g fill="#ffd422"><path d="m256 264h16v16h-16zm0 0"/><path d="m288 264h16v16h-16zm0 0"/><path d="m320 264h16v16h-16zm0 0"/><path d="m352 264h16v16h-16zm0 0"/></g><path d="m264 184h96v16h-96zm0 0" fill="#ff6243"/><path d="m264 152h16v16h-16zm0 0" fill="#ff6243"/><path d="m296 152h48v16h-48zm0 0" fill="#ff6243"/></svg>