<?xml version="1.0" encoding="iso-8859-1"?>
<!-- Generator: Adobe Illustrator 19.0.0, SVG Export Plug-In . SVG Version: 6.00 Build 0)  -->
<svg version="1.1" id="Capa_1" xmlns="http://www.w3.org/2000/svg" xmlns:xlink="http://www.w3.org/1999/xlink" x="0px" y="0px"
	 viewBox="0 0 512 512" style="enable-background:new 0 0 512 512;" xml:space="preserve">
<path style="fill:#88A5A0;" d="M351.568,486.503H160.432c-7.714,0-11.037-9.808-4.894-14.481
	c14.985-11.379,24.793-25.599,31.198-39.234c11.702-24.854,12.105-47.714,12.105-47.714h114.32c0,0,0.403,22.86,12.105,47.714
	c6.405,13.635,16.213,27.855,31.198,39.234C362.606,476.695,359.282,486.503,351.568,486.503z"/>
<path style="fill:#718987;" d="M321.214,423.135c-7.746-20.817-8.054-38.061-8.054-38.061H198.84c0,0-0.309,17.245-8.054,38.061
	H321.214z"/>
<path style="fill:#F9B767;" d="M511.993,63.442V340.58H0V63.442c0-20.966,16.979-37.945,37.925-37.945h436.143
	C495.015,25.497,511.993,42.476,511.993,63.442z"/>
<rect y="313.15" style="fill:#EF9D45;" width="511.99" height="27.428"/>
<path style="fill:#B0D1CF;" d="M495.216,404.59H16.784C7.514,404.59,0,397.076,0,387.806v-54.15h512v54.15
	C512,397.076,504.486,404.59,495.216,404.59z"/>
<circle style="fill:#E58013;" cx="256" cy="369.12" r="11.511"/>
<path style="fill:#DCF9F7;" d="M346.653,112.505H68.64c-3.344,0-6.055-2.711-6.055-6.055V81.553c0-3.344,2.711-6.055,6.055-6.055
	h278.012c3.344,0,6.055,2.711,6.055,6.055v24.897C352.707,109.794,349.996,112.505,346.653,112.505z"/>
<g>
	<path style="fill:#EF9D45;" d="M383.191,120.23c-4.268,0-7.726-3.459-7.726-7.726V75.498c0-4.268,3.459-7.726,7.726-7.726
		c4.268,0,7.726,3.459,7.726,7.726v37.006C390.918,116.772,387.459,120.23,383.191,120.23z"/>
	<path style="fill:#EF9D45;" d="M410.521,120.23c-4.268,0-7.726-3.459-7.726-7.726V75.498c0-4.268,3.459-7.726,7.726-7.726
		s7.726,3.459,7.726,7.726v37.006C418.247,116.772,414.789,120.23,410.521,120.23z"/>
	<path style="fill:#EF9D45;" d="M437.852,120.23c-4.268,0-7.726-3.459-7.726-7.726V75.498c0-4.268,3.459-7.726,7.726-7.726
		s7.726,3.459,7.726,7.726v37.006C445.578,116.772,442.12,120.23,437.852,120.23z"/>
</g>
<path style="fill:#DCF9F7;" d="M153.785,256h278.012c3.344,0,6.055,2.711,6.055,6.055v14.888c0,3.344-2.711,6.055-6.055,6.055
	H153.785c-3.344,0-6.055-2.711-6.055-6.055v-14.888C147.73,258.711,150.441,256,153.785,256z"/>
<g>
	<path style="fill:#EF9D45;" d="M117.246,290.724c-4.268,0-7.726-3.459-7.726-7.726V256c0-4.268,3.459-7.726,7.726-7.726
		c4.268,0,7.726,3.459,7.726,7.726v26.998C124.973,287.266,121.514,290.724,117.246,290.724z"/>
	<path style="fill:#EF9D45;" d="M89.916,290.724c-4.268,0-7.726-3.459-7.726-7.726V256c0-4.268,3.459-7.726,7.726-7.726
		c4.268,0,7.726,3.459,7.726,7.726v26.998C97.643,287.266,94.184,290.724,89.916,290.724z"/>
	<path style="fill:#EF9D45;" d="M62.586,290.724c-4.268,0-7.726-3.459-7.726-7.726V256c0-4.268,3.459-7.726,7.726-7.726
		s7.726,3.459,7.726,7.726v26.998C70.312,287.266,66.853,290.724,62.586,290.724z"/>
</g>
<g>
	<path style="fill:#DCF9F7;" d="M177.674,219.199c-0.737,0-1.488-0.107-2.231-0.33c-4.086-1.23-6.4-5.54-5.17-9.627
		c5.291-17.566,11.08-34.123,17.209-51.652l1.161-3.321c1.407-4.026,5.81-6.155,9.843-4.744c4.028,1.407,6.152,5.815,4.744,9.843
		l-1.162,3.323c-6.071,17.364-11.807,33.766-16.999,51.008C184.062,217.042,180.994,219.199,177.674,219.199z"/>
	<path style="fill:#DCF9F7;" d="M150.639,218.806c-3.345,0-6.335-2.193-7.355-5.356c-0.036-0.112-0.069-0.224-0.101-0.336
		c-2.72-9.422-6.127-19.053-9.422-28.369c-2.965-8.384-6.031-17.054-8.688-25.787c-1.241-4.083,1.061-8.398,5.144-9.641
		c4.084-1.237,8.398,1.062,9.641,5.144c2.555,8.402,5.563,16.907,8.472,25.132c0.804,2.272,1.614,4.562,2.421,6.866
		c1.853-5.902,3.782-11.996,6.082-18.283c1.467-4.006,5.904-6.065,9.911-4.6c4.007,1.467,6.066,5.904,4.6,9.911
		c-2.294,6.266-4.158,12.206-6.132,18.495c-2.195,6.993-4.465,14.224-7.342,21.816c-1.096,2.913-3.963,5.006-7.115,5.006
		C150.717,218.805,150.678,218.805,150.639,218.806z"/>
	<path style="fill:#DCF9F7;" d="M269.473,219.199c-0.737,0-1.488-0.107-2.231-0.33c-4.086-1.23-6.4-5.54-5.17-9.627
		c5.291-17.566,11.08-34.123,17.209-51.652l1.161-3.321c1.407-4.026,5.809-6.155,9.843-4.744c4.028,1.407,6.152,5.815,4.744,9.843
		l-1.162,3.323c-6.071,17.364-11.807,33.766-16.999,51.008C275.861,217.042,272.793,219.199,269.473,219.199z"/>
	<path style="fill:#DCF9F7;" d="M242.438,218.806c-3.491,0-6.526-2.363-7.456-5.692c-2.72-9.422-6.127-19.053-9.422-28.369
		c-2.965-8.384-6.031-17.054-8.688-25.787c-1.241-4.083,1.061-8.398,5.144-9.641c4.083-1.237,8.399,1.062,9.641,5.144
		c2.555,8.402,5.563,16.907,8.472,25.132c0.804,2.272,1.614,4.562,2.421,6.866c1.853-5.902,3.782-11.996,6.082-18.283
		c1.467-4.006,5.904-6.065,9.911-4.6c4.007,1.467,6.066,5.904,4.6,9.911c-2.294,6.266-4.158,12.206-6.132,18.495
		c-2.195,6.993-4.465,14.224-7.342,21.816c-1.096,2.913-3.963,5.006-7.115,5.006C242.515,218.805,242.477,218.805,242.438,218.806z"
		/>
	<path style="fill:#DCF9F7;" d="M361.272,219.199c-0.737,0-1.488-0.107-2.231-0.33c-4.086-1.23-6.4-5.54-5.17-9.627
		c5.291-17.566,11.081-34.123,17.209-51.652l1.161-3.321c1.407-4.026,5.81-6.155,9.843-4.744c4.028,1.407,6.152,5.815,4.744,9.843
		l-1.162,3.323c-6.071,17.364-11.807,33.766-16.999,51.008C367.66,217.042,364.592,219.199,361.272,219.199z"/>
	<path style="fill:#DCF9F7;" d="M334.236,218.806c-3.491,0-6.526-2.363-7.456-5.692c-2.72-9.422-6.127-19.053-9.422-28.369
		c-2.965-8.384-6.031-17.054-8.688-25.787c-1.241-4.083,1.061-8.398,5.144-9.641c4.085-1.237,8.399,1.062,9.641,5.144
		c2.555,8.402,5.563,16.907,8.472,25.132c0.804,2.272,1.614,4.562,2.421,6.866c1.853-5.902,3.782-11.996,6.082-18.283
		c1.467-4.006,5.902-6.065,9.911-4.6c4.007,1.467,6.066,5.904,4.6,9.911c-2.294,6.266-4.158,12.206-6.132,18.495
		c-2.195,6.993-4.465,14.224-7.342,21.816c-1.095,2.913-3.963,5.006-7.115,5.006C334.314,218.805,334.275,218.805,334.236,218.806z"
		/>
</g>
<g>
</g>
<g>
</g>
<g>
</g>
<g>
</g>
<g>
</g>
<g>
</g>
<g>
</g>
<g>
</g>
<g>
</g>
<g>
</g>
<g>
</g>
<g>
</g>
<g>
</g>
<g>
</g>
<g>
</g>
</svg>
