<?xml version="1.0" standalone="no"?>
<!DOCTYPE svg PUBLIC "-//W3C//DTD SVG 20010904//EN"
 "http://www.w3.org/TR/2001/REC-SVG-20010904/DTD/svg10.dtd">
<svg version="1.0" xmlns="http://www.w3.org/2000/svg"
 width="200.000000pt" height="200.000000pt" viewBox="0 0 200.000000 200.000000"
 preserveAspectRatio="xMidYMid meet">
<metadata>
Created by potrace 1.15, written by Peter Selinger 2001-2017
</metadata>
<g transform="translate(0.000000,200.000000) scale(0.100000,-0.100000)"
fill="#000000" stroke="none">
<path d="M310 1285 l0 -435 75 0 75 0 0 360 0 360 360 0 360 0 0 75 0 75 -435
0 -435 0 0 -435z"/>
<path d="M1378 1373 l-128 -4 0 -31 c0 -17 -7 -40 -16 -50 -14 -15 -15 -20 -3
-34 9 -12 14 -45 15 -103 0 -47 1 -168 2 -268 l2 -183 55 0 55 0 0 139 0 139
108 4 c101 3 111 5 145 31 50 38 77 94 77 159 0 43 -7 65 -36 115 -33 56 -40
61 -77 66 -23 3 -43 11 -45 16 -2 6 -9 10 -15 9 -7 -1 -69 -4 -139 -5z m168
-138 c13 -8 27 -27 30 -42 17 -67 -39 -113 -138 -113 l-57 0 -11 39 c-12 47
-4 94 21 117 17 15 22 16 47 3 46 -23 48 -23 27 1 l-20 23 39 -6 c21 -3 49
-13 62 -22z"/>
<path d="M674 1108 c2 -145 6 -272 7 -283 4 -25 22 -47 79 -99 24 -23 54 -52
67 -65 13 -13 23 -19 23 -14 0 5 -9 18 -20 28 -31 28 -25 32 38 22 95 -16 176
17 231 94 17 23 33 58 36 78 3 20 9 43 13 51 4 8 6 113 4 233 l-4 217 -54 0
-54 0 0 -122 c0 -68 -3 -175 -5 -239 l-5 -116 -39 -40 c-43 -46 -71 -58 -98
-44 -10 5 -33 15 -51 22 -58 21 -62 41 -62 304 l0 235 -55 0 -56 0 5 -262z"/>
<path d="M578 589 c-10 -5 -18 -17 -18 -26 0 -14 2 -14 20 2 20 18 20 17 20
-118 0 -115 2 -137 15 -137 12 0 15 19 15 108 l0 107 63 -105 c46 -76 69 -106
85 -108 22 -3 22 -2 22 137 0 133 -1 141 -20 141 -18 0 -20 -8 -22 -101 l-3
-101 -58 101 c-33 56 -63 101 -67 101 -5 0 -14 2 -22 5 -7 2 -21 0 -30 -6z"/>
<path d="M907 586 c-68 -25 -97 -66 -97 -138 0 -83 58 -138 145 -138 58 0 97
22 124 70 65 117 -47 251 -172 206z m126 -66 c38 -43 37 -98 -2 -142 -25 -28
-36 -33 -75 -33 -38 0 -51 5 -77 32 -26 25 -32 39 -32 74 0 36 6 48 38 77 33
31 42 34 79 29 29 -4 49 -15 69 -37z"/>
<path d="M1480 582 c-30 -14 -35 -23 -38 -55 -4 -49 15 -71 79 -92 61 -21 78
-46 49 -75 -26 -26 -60 -26 -88 0 -16 15 -27 18 -39 12 -14 -9 -13 -13 10 -36
21 -21 36 -26 75 -26 58 0 92 28 92 77 0 37 -26 61 -93 87 -25 9 -48 24 -51
33 -15 37 61 72 91 42 13 -13 43 -5 43 11 0 11 -59 40 -82 40 -7 0 -29 -8 -48
-18z"/>
<path d="M1352 548 c-49 -73 -142 -225 -142 -232 0 -3 9 -6 19 -6 11 0 28 15
41 35 20 32 25 35 71 35 l49 0 0 -35 c0 -24 5 -35 15 -35 13 0 15 22 15 140 0
132 -1 140 -20 140 -11 0 -30 -17 -48 -42z"/>
</g>
</svg>
